HIERARCHY
ROOT root
{
	OFFSET 0.000000 0.000000 0.000000
	CHANNELS 6 Xposition Yposition Zposition Zrotation Yrotation Xrotation
	JOINT lhip
	{
		OFFSET 0.058581 -0.082280 -0.017664
		CHANNELS 3 Zrotation Yrotation Xrotation
		JOINT lknee
		{
			OFFSET 0.043451 -0.386469 0.008037
			CHANNELS 3 Zrotation Yrotation Xrotation
			JOINT lankle
			{
				OFFSET -0.014790 -0.426874 -0.037428
				CHANNELS 3 Zrotation Yrotation Xrotation
				JOINT ltoe
				{
					OFFSET 0.041054 -0.060286 0.122042
					CHANNELS 3 Zrotation Yrotation Xrotation
					End Site
					{
						OFFSET 0.000000 0.000000 0.000000
					}
				}
			}
		}
	}
	JOINT rhip
	{
		OFFSET -0.060310 -0.090513 -0.013543
		CHANNELS 3 Zrotation Yrotation Xrotation
		JOINT rknee
		{
			OFFSET -0.043257 -0.383688 -0.004843
			CHANNELS 3 Zrotation Yrotation Xrotation
			JOINT rankle
			{
				OFFSET 0.019056 -0.420046 -0.034562
				CHANNELS 3 Zrotation Yrotation Xrotation
				JOINT rtoe
				{
					OFFSET -0.034840 -0.062106 0.130323
					CHANNELS 3 Zrotation Yrotation Xrotation
					End Site
					{
						OFFSET 0.000000 0.000000 0.000000
					}
				}
			}
		}
	}
	JOINT lowerback
	{
		OFFSET 0.004439 0.124404 -0.038385
		CHANNELS 3 Zrotation Yrotation Xrotation
		JOINT upperback
		{
			OFFSET 0.004488 0.137956 0.026820
			CHANNELS 3 Zrotation Yrotation Xrotation
			JOINT chest
			{
				OFFSET -0.002265 0.056032 0.002855
				CHANNELS 3 Zrotation Yrotation Xrotation
				JOINT lowerneck
				{
					OFFSET -0.013390 0.211636 -0.033468
					CHANNELS 3 Zrotation Yrotation Xrotation
					JOINT upperneck
					{
						OFFSET 0.010113 0.088937 0.050410
						CHANNELS 3 Zrotation Yrotation Xrotation
						End Site
						{
							OFFSET 0.000000 0.000000 0.000000
						}
					}
				}
				JOINT lclavicle
				{
					OFFSET 0.071702 0.114000 -0.018898
					CHANNELS 3 Zrotation Yrotation Xrotation
					JOINT lshoulder
					{
						OFFSET 0.122921 0.045205 -0.019046
						CHANNELS 3 Zrotation Yrotation Xrotation
						JOINT lelbow
						{
							OFFSET 0.255332 -0.015649 -0.022946
							CHANNELS 3 Zrotation Yrotation Xrotation
							JOINT lwrist
							{
								OFFSET 0.265709 0.012698 -0.007375
								CHANNELS 3 Zrotation Yrotation Xrotation
								End Site
								{
									OFFSET 0.000000 0.000000 0.000000
								}
							}
						}
					}
				}
				JOINT rclavicle
				{
					OFFSET -0.082954 0.112472 -0.023707
					CHANNELS 3 Zrotation Yrotation Xrotation
					JOINT rshoulder
					{
						OFFSET -0.113228 0.046853 -0.008472
						CHANNELS 3 Zrotation Yrotation Xrotation
						JOINT relbow
						{
							OFFSET -0.260127 -0.014369 -0.031269
							CHANNELS 3 Zrotation Yrotation Xrotation
							JOINT rwrist
							{
								OFFSET -0.269108 0.006794 -0.006027
								CHANNELS 3 Zrotation Yrotation Xrotation
								End Site
								{
									OFFSET 0.000000 0.000000 0.000000
								}
							}
						}
					}
				}
			}
		}
	}
}
MOTION
Frames: 16
Frame Time: 0.033333
1.183391 0.487603 0.245855 -4.624228 27.717195 -16.667254 12.852253 -1.228401 -27.492440 -8.143931 12.123595 85.211462 -8.887074 -1.879096 15.410218 0.000000 -0.000000 0.000000 -7.797744 2.648774 -21.902939 7.369653 -3.484323 124.541402 0.633384 9.452036 -8.273928 0.000000 -0.000000 0.000000 5.631241 9.189928 26.765010 7.596819 6.776409 7.649760 2.641085 9.945552 -4.668993 2.895901 7.068786 38.819966 2.135403 1.120095 11.980076 17.062794 -22.935814 -14.123552 -39.710978 -10.305337 2.912804 4.493167 -35.251588 23.879138 -27.393942 -16.584818 9.427176 1.153131 41.859296 7.863943 44.392342 29.735776 1.932304 -2.545112 37.729360 16.689651 31.652351 19.397375 -10.156565 
1.186686 0.485780 0.245985 -4.397380 27.779092 -15.940721 12.660109 -2.086912 -28.484343 -7.908973 12.022171 85.644678 -8.017973 -0.976327 15.844460 0.000000 -0.000000 0.000000 -7.983153 2.695962 -22.679003 7.456913 -3.477943 124.910765 0.372831 9.640991 -9.015025 0.000000 -0.000000 0.000000 5.731093 9.010960 27.818166 7.472706 6.940265 7.695418 2.739809 9.998858 -4.480320 2.529208 6.624666 39.522909 1.857129 0.686572 11.614451 17.005891 -22.372974 -13.518263 -39.613583 -9.068925 3.008231 3.705448 -38.030426 25.519016 -28.252739 -16.660484 9.902943 -0.039672 42.251645 6.574624 43.349429 31.204802 0.256575 -4.161911 33.584849 14.857548 33.848803 17.621591 -7.242574 
1.188422 0.483752 0.246794 -4.074768 27.660532 -14.651671 12.987436 -2.824039 -30.236024 -8.036993 12.305939 85.844325 -7.899780 -0.929290 16.207916 0.000000 -0.000000 0.000000 -8.372522 2.983510 -24.003494 7.340501 -3.358554 125.206762 0.798731 9.826629 -9.066897 0.000000 -0.000000 0.000000 5.589984 8.656879 28.840414 7.196172 7.121986 7.251228 2.675399 10.044167 -4.243994 2.071259 6.807958 39.424434 1.300424 0.628101 11.087004 16.756064 -21.197726 -12.571656 -39.223686 -7.857041 3.450125 2.491663 -42.004784 25.063323 -27.046825 -21.421227 5.257972 -1.184020 42.350434 5.507649 42.176001 33.010084 -0.574315 -5.830727 30.194464 12.368647 34.416634 16.720979 -5.381072 
1.188644 0.481745 0.247766 -3.726368 27.381373 -12.889266 13.763784 -3.071676 -32.592079 -8.933343 12.551857 85.696780 -7.857457 -1.835897 15.858336 0.000000 -0.000000 0.000000 -8.784362 3.262030 -25.969792 7.352208 -3.345794 125.482948 1.201671 9.844673 -8.575812 0.000000 -0.000000 0.000000 5.228025 8.195636 29.693901 6.836849 7.303573 6.547326 2.552182 10.049856 -3.913374 1.469564 7.328394 38.735507 0.712357 0.699043 10.594282 16.571899 -19.380660 -11.723610 -38.990658 -6.427328 3.997532 1.561123 -46.928958 23.914756 -24.361235 -25.358950 -1.271741 -2.504964 42.134622 4.385620 40.975048 35.019493 -1.160631 -7.156440 27.758279 9.637347 34.301077 16.129871 -4.286259 
1.187216 0.479610 0.248639 -3.599994 26.779293 -10.984416 15.104904 -2.583789 -35.203533 -9.759129 12.747730 85.406595 -7.623556 -2.643626 14.966173 0.000000 -0.000000 0.000000 -8.785656 3.504708 -28.589201 7.699982 -3.680324 125.976255 1.578822 10.080997 -8.072462 0.000000 -0.000000 0.000000 4.764808 7.682224 30.485970 6.511147 7.660652 5.574445 2.508646 9.990780 -3.469670 1.173076 8.088101 37.799664 -0.071197 0.868685 10.448661 16.193245 -16.774926 -11.171791 -38.713903 -4.906327 4.158081 0.399618 -51.530920 25.231460 -22.174758 -26.475174 -3.872428 -3.782092 41.471656 3.178247 39.750933 37.305294 -2.077542 -7.759376 25.973038 7.902684 33.895438 15.880083 -3.528307 
1.184521 0.477378 0.249275 -3.800906 25.839229 -9.258570 16.986874 -1.636029 -37.640334 -9.879966 13.029405 85.135513 -7.549750 -2.538885 14.125537 0.000000 -0.000000 0.000000 -8.334028 4.017024 -31.556339 8.091760 -4.313925 126.696919 1.957973 10.567767 -7.912190 0.000000 -0.000000 0.000000 4.285456 7.158625 31.369570 6.253179 8.208231 4.576742 2.552762 9.924147 -3.151986 1.198513 8.843438 36.982440 -0.789725 1.084825 10.485340 15.608956 -13.897823 -10.605342 -38.510453 -3.167532 3.745960 -0.251805 -56.087086 26.880129 -21.842803 -26.903900 -4.984945 -4.577726 40.633309 2.442403 38.154773 39.516908 -3.549306 -8.023227 25.170077 6.971864 33.495026 15.840246 -3.147845 
1.180835 0.474828 0.249695 -4.254650 24.778303 -7.807364 19.066078 -0.544030 -39.762215 -9.849751 13.113602 84.895950 -7.374479 -2.134458 13.434274 0.000000 -0.000000 0.000000 -7.731606 4.799650 -34.583668 8.253790 -5.182297 127.524453 1.955982 10.670589 -8.010474 0.000000 -0.000000 0.000000 3.698283 6.690833 32.276044 6.067277 8.805372 3.702450 2.620232 9.856572 -2.934536 1.433259 9.360224 36.325725 -1.087639 1.236232 10.329925 15.223982 -11.025545 -9.909432 -38.111992 -1.356950 3.094859 -1.135919 -60.751843 28.773707 -21.465356 -27.700184 -6.608287 -4.922242 39.870818 2.262880 36.154565 41.382723 -5.418281 -8.179403 25.247766 6.183927 32.331816 16.198367 -3.405646 
1.176741 0.471999 0.250071 -4.786778 23.762754 -6.713235 20.996530 0.382795 -41.438023 -10.360375 12.808808 84.613377 -6.879853 -2.041572 12.794527 0.000000 -0.000000 0.000000 -7.289841 5.535375 -37.306319 8.303044 -6.175189 128.272380 1.650544 10.383200 -8.063851 0.000000 -0.000000 0.000000 3.068211 6.316948 33.242105 5.916216 9.332709 3.144709 2.682531 9.730112 -2.832852 1.620029 9.586847 35.926753 -1.212388 1.456200 9.741913 14.837301 -8.480621 -9.134652 -37.054848 0.567805 2.677993 -3.565343 -65.245783 32.026702 -19.672042 -28.037804 -7.811752 -5.097422 39.315185 2.204743 33.937858 42.784458 -7.158754 -8.171406 25.742516 5.349790 30.283539 16.721491 -3.591946 
1.172573 0.468914 0.250488 -5.338118 22.784520 -5.952536 22.823287 1.081730 -42.741259 -11.214220 12.277477 84.370300 -6.535785 -2.190877 12.525081 0.000000 -0.000000 0.000000 -7.099656 5.987073 -39.626295 8.328582 -7.096089 128.930215 1.533836 10.254473 -7.930287 0.000000 -0.000000 0.000000 2.506184 6.005636 34.230156 5.753017 9.748396 3.033298 2.699802 9.542905 -2.937811 1.739439 9.693161 35.785824 -1.396039 1.824949 9.107550 14.180814 -6.504216 -8.133074 -35.516681 2.712561 2.368492 -6.785617 -69.610881 35.618634 -17.913671 -28.437093 -9.162194 -5.118605 39.029011 2.293899 31.604308 43.845271 -8.835627 -8.130953 26.331095 4.583861 28.669840 17.088810 -3.359435 
1.168298 0.465278 0.250892 -5.777822 21.754714 -5.272341 24.554940 1.652020 -43.846754 -11.891360 11.779734 84.179819 -6.750401 -2.323059 12.755918 0.000000 -0.000000 0.000000 -7.237414 6.090362 -41.771292 8.350922 -7.855890 129.638461 1.483010 10.321577 -7.864168 0.000000 -0.000000 0.000000 1.833166 5.875853 35.002632 5.554619 10.034572 3.338673 2.615525 9.273694 -3.230674 1.806352 9.802788 36.030980 -1.658759 1.861203 8.629900 13.444696 -5.059326 -6.829878 -33.612032 5.164130 2.162537 -9.857379 -74.101187 38.917420 -17.212547 -29.314737 -10.646519 -4.871815 39.030154 2.513425 29.211745 44.835859 -10.629408 -8.043421 26.394121 3.737936 28.027322 17.365151 -3.054646 
1.164055 0.461264 0.251247 -6.057437 20.708201 -4.556130 26.107001 2.118237 -44.816525 -12.437779 11.384464 83.950903 -7.088153 -2.342230 13.027454 0.000000 -0.000000 0.000000 -7.645740 5.742724 -43.842362 8.462034 -8.465457 130.413450 1.461772 10.462759 -7.814358 0.000000 -0.000000 0.000000 0.969133 5.944550 35.566889 5.315563 10.218740 3.733986 2.461827 9.022024 -3.631754 1.996989 9.996720 36.481144 -1.776274 1.858700 8.466841 12.618762 -3.905079 -5.497895 -31.240519 7.693402 2.134861 -15.086864 -78.598677 44.155070 -17.031584 -30.346157 -12.066617 -4.230497 39.235205 3.025104 26.849125 45.529761 -12.282639 -8.063408 26.360851 2.825222 28.162930 17.354258 -2.496356 
1.160049 0.457193 0.251687 -6.265564 19.734389 -3.817455 27.403048 2.592542 -45.700061 -13.049897 10.985870 83.717275 -6.944590 -2.261226 12.864967 0.000000 -0.000000 0.000000 -8.196680 4.970768 -45.850281 8.686111 -9.027297 131.183766 1.577243 10.630532 -7.653219 0.000000 -0.000000 0.000000 0.057925 6.158140 35.912269 5.114220 10.378425 4.015487 2.286734 8.810044 -4.006114 2.278449 10.014239 37.127779 -1.835480 1.863392 8.677301 11.653076 -2.806600 -4.412055 -28.604610 9.881624 2.445842 -27.837775 -82.476399 56.657168 -16.243752 -30.933565 -13.120408 -3.207064 39.472512 3.748167 24.735743 45.750019 -13.465546 -8.143709 26.363401 1.963307 28.680736 17.033012 -1.627865 
1.156701 0.452976 0.252143 -6.512737 18.903772 -2.977925 28.473762 3.088174 -46.675517 -13.512871 10.679405 83.551844 -6.316864 -2.052293 12.365015 0.000000 -0.000000 0.000000 -8.849637 3.957771 -47.896353 8.927964 -9.687044 131.883118 1.816099 10.859677 -7.391134 0.000000 -0.000000 0.000000 -0.732265 6.482059 35.695686 5.039647 10.580461 4.137092 2.055308 8.673638 -4.137984 3.001722 9.530215 38.061376 -1.872525 1.651199 9.323909 10.903766 -2.162365 -3.387509 -26.449064 11.658497 3.332045 -54.337885 -85.324170 82.760777 -14.580344 -30.806033 -13.625798 -1.408712 39.848392 4.721202 22.559940 45.020397 -14.345833 -8.097666 26.348964 0.865894 29.759377 16.406279 -0.284535 
1.154079 0.448586 0.252444 -6.865924 18.213568 -2.173566 29.516749 3.580494 -47.718607 -13.759716 10.723452 83.564106 -5.608675 -1.602392 11.850151 0.000000 -0.000000 0.000000 -9.617275 2.986564 -49.775384 9.125631 -10.494723 132.427212 2.200511 11.312187 -7.054661 0.000000 -0.000000 0.000000 -1.453795 6.687334 35.587899 4.854367 10.719858 4.218826 1.773991 8.539110 -4.205328 3.546088 9.109301 38.353430 -1.465249 1.618640 9.508533 10.393891 -1.082170 -2.472393 -24.461378 13.380079 3.986948 -106.828316 -85.162392 134.943702 -12.770109 -30.747084 -14.934976 0.020511 39.714530 5.485739 20.851280 44.625559 -15.157320 -7.878632 26.625947 0.137952 30.594913 15.928211 0.746631 
1.152001 0.444386 0.252862 -7.341146 17.647613 -1.402228 30.546279 4.252128 -48.794117 -13.961180 11.105529 83.804827 -5.146256 -1.268650 11.411446 0.000000 -0.000000 0.000000 -10.386840 2.031889 -51.410795 9.275236 -11.447824 132.778393 2.473419 11.657833 -6.600440 0.000000 -0.000000 0.000000 -2.065593 6.833432 35.516691 4.690501 10.816055 4.273643 1.464476 8.359295 -4.250246 4.196705 8.935902 38.128555 -1.001668 1.554814 9.804990 9.816644 0.218757 -1.619250 -22.384844 15.094881 4.713247 -134.503200 -82.008326 162.401633 -11.325547 -30.885405 -16.338330 0.978922 39.192570 5.874207 19.983710 44.516709 -15.329563 -7.764702 26.979242 -0.372623 31.391020 15.627053 1.396601 
1.150351 0.440460 0.253344 -8.014983 17.182864 -0.686915 31.508721 5.266972 -49.930232 -14.217021 11.626466 84.318527 -5.297010 -1.513042 11.199410 0.000000 -0.000000 0.000000 -11.002942 1.103936 -52.883214 9.294331 -12.236290 133.007922 2.855936 12.106334 -5.955005 0.000000 -0.000000 0.000000 -2.571930 6.877341 35.395508 4.582457 10.892308 4.281872 1.233883 8.266211 -4.264202 4.827849 8.893082 37.809803 -0.814501 1.387538 10.100986 9.100131 1.497724 -0.831994 -20.396465 16.922620 5.435532 -145.647013 -78.134330 173.684295 -11.581139 -31.577679 -17.150221 1.849421 38.564372 6.296941 19.338173 44.345508 -15.443384 -7.609085 27.483876 -0.641910 32.544376 15.320639 2.037231 
